<?xml version="1.0" encoding="utf-8"?>
<!-- Generator: Adobe Illustrator 19.0.0, SVG Export Plug-In . SVG Version: 6.00 Build 0)  -->
<svg version="1.1" id="Layer_1" xmlns="http://www.w3.org/2000/svg" xmlns:xlink="http://www.w3.org/1999/xlink" x="0px" y="0px"
	 viewBox="-5.5 211.4 400 91" style="enable-background:new -5.5 211.4 400 91;" xml:space="preserve">
<style type="text/css">
	.st0{fill:#5D0024;}
	.st1{fill:#8D0034;}
	.st2{fill:#B8114F;}
</style>
<g>
	<g>
		<path class="st0" d="M136,234.7c2.1,1.9,3.2,4.7,3.2,8.6v14.6h-6.4c-0.3,0-0.5-0.2-0.5-0.5v-2.7c-1.4,2.4-4,3.6-7.8,3.6
			c-2,0-3.7-0.3-5.1-1c-1.4-0.7-2.6-1.6-3.3-2.8c-0.8-1.2-1.1-2.5-1.1-4c0-2.4,0.9-4.3,2.7-5.6s4.6-2,8.3-2h5.9
			c0-1.6-0.5-2.9-1.5-3.7c-1-0.9-2.5-1.3-4.4-1.3c-1.4,0-2.7,0.2-4,0.6c-1.1,0.4-2.1,0.8-2.9,1.4c-0.3,0.2-0.6,0.1-0.8-0.2l-2.2-4.2
			c-0.1-0.2,0-0.5,0.2-0.7c1.3-0.9,2.9-1.5,4.6-2c2-0.5,4-0.8,6-0.8C130.8,231.9,133.8,232.8,136,234.7z M129.6,252.4
			c1-0.6,1.7-1.5,2.1-2.6v-2.6h-5.1c-3,0-4.6,1-4.6,3c0,1,0.4,1.7,1.1,2.3c0.7,0.6,1.8,0.8,3.1,0.8
			C127.5,253.3,128.6,253,129.6,252.4z M154.1,233c1.5-0.6,3.3-1,5.2-1v6.5c0,0.2-0.2,0.4-0.4,0.4c-0.6,0-1-0.1-1.3-0.1
			c-2.1,0-3.8,0.6-5,1.8c-1.2,1.2-1.8,3-1.8,5.4v11.4c0,0.3-0.2,0.5-0.5,0.5h-6.9v-25.1c0-0.3,0.2-0.5,0.5-0.5h6.1
			c0.3,0,0.5,0.2,0.5,0.5v3C151.4,234.6,152.6,233.6,154.1,233z M186,234.7c2,1.9,2.9,4.7,2.9,8.5v14.2c0,0.3-0.2,0.5-0.5,0.5h-6.5
			c-0.3,0-0.5-0.2-0.5-0.5v-13.1c0-2-0.4-3.6-1.3-4.6c-0.9-1-2.2-1.5-3.9-1.5c-1.9,0-3.4,0.6-4.5,1.7c-1.1,1.2-1.7,2.9-1.7,5.2v12.2
			c0,0.3-0.2,0.5-0.5,0.5h-6.5c-0.3,0-0.5-0.2-0.5-0.5v-25.2h6.7c0.2,0,0.4,0.2,0.4,0.4v2.6c1-1.1,2.2-1.9,3.7-2.5
			c1.5-0.6,3.1-0.9,4.8-0.9C181.5,231.9,184,232.8,186,234.7z M218.7,247.2h-19.1c0.3,1.6,1.2,2.8,2.5,3.8c1.3,0.9,2.9,1.4,4.9,1.4
			c1.3,0,2.5-0.2,3.6-0.6c0.9-0.4,1.8-0.9,2.7-1.7c0.1-0.1,0.3-0.1,0.4,0l3.4,3.7c0.2,0.2,0.2,0.5,0,0.7c-2.4,2.5-5.8,3.8-10.3,3.8
			c-2.9,0-5.5-0.6-7.7-1.7c-2.2-1.1-3.9-2.7-5.2-4.7c-1.2-2-1.8-4.3-1.8-6.8c0-2.5,0.6-4.8,1.8-6.8c1.2-2,2.8-3.6,4.9-4.7
			c2.1-1.1,4.4-1.7,7-1.7c2.5,0,4.8,0.5,6.8,1.6c2,1.1,3.6,2.6,4.8,4.6c1.2,2,1.7,4.4,1.7,7c0,0.1,0,0.6-0.1,1.7
			C219.1,247,218.9,247.2,218.7,247.2z M201.7,238.9c-1.1,1-1.8,2.3-2.1,3.9h12.6c-0.3-1.6-1-2.9-2.1-3.9c-1.1-1-2.5-1.5-4.2-1.5
			C204.2,237.5,202.8,238,201.7,238.9z M239.7,256.5c0,0.1,0,0.3-0.1,0.3c-0.7,0.5-1.5,0.8-2.5,1.1c-1.1,0.3-2.2,0.4-3.4,0.4
			c-3,0-5.4-0.8-7.1-2.3c-1.7-1.6-2.5-3.8-2.5-6.9v-10.5h-3.7c-0.1,0-0.3-0.1-0.3-0.3v-5.2c0-0.1,0.1-0.3,0.3-0.3h3.7v-6
			c0-0.1,0.1-0.3,0.3-0.3h6.9c0.1,0,0.3,0.1,0.3,0.3v6h6.1c0.1,0,0.3,0.1,0.3,0.3v5.2c0,0.1-0.1,0.3-0.3,0.3h-6.1V249
			c0,1.1,0.3,1.9,0.8,2.5c0.6,0.6,1.3,0.9,2.4,0.9c1,0,2-0.3,2.7-0.8c0.1-0.1,0.3,0,0.4,0.1L239.7,256.5z M283.5,222.7v35
			c0,0.1-0.1,0.2-0.2,0.2h-3.1c-0.1,0-0.2-0.1-0.2-0.2v-16.1h-20.9v16.1c0,0.1-0.1,0.2-0.2,0.2h-3.2c-0.1,0-0.2-0.1-0.2-0.2v-35
			c0-0.1,0.1-0.2,0.2-0.2h3.2c0.1,0,0.2,0.1,0.2,0.2v15.8H280v-15.8c0-0.1,0.1-0.2,0.2-0.2h3.1C283.4,222.6,283.5,222.7,283.5,222.7
			z M312.3,246.4h-20.8c0.2,2.6,1.2,4.7,3,6.3c1.8,1.6,4.1,2.4,6.9,2.4c1.6,0,3-0.3,4.3-0.8c1.2-0.5,2.3-1.3,3.3-2.3
			c0.1-0.1,0.2-0.1,0.3,0l1.7,1.9c0.1,0.1,0.1,0.2,0,0.2c-1.1,1.3-2.5,2.3-4.1,2.9c-1.7,0.7-3.5,1-5.5,1c-2.6,0-4.9-0.5-6.8-1.6
			c-2-1.1-3.5-2.6-4.6-4.6c-1.1-1.9-1.7-4.1-1.7-6.6c0-2.4,0.5-4.6,1.6-6.6c1.1-1.9,2.5-3.4,4.4-4.5c1.9-1.1,3.9-1.6,6.3-1.6
			c2.3,0,4.4,0.5,6.2,1.6c1.8,1.1,3.3,2.6,4.3,4.5s1.6,4.1,1.6,6.6l0,0.9C312.5,246.3,312.4,246.4,312.3,246.4z M294.3,237.9
			c-1.6,1.5-2.6,3.6-2.8,6h17.8c-0.2-2.5-1.2-4.5-2.8-6c-1.6-1.5-3.7-2.3-6.1-2.3C298,235.5,295.9,236.3,294.3,237.9z M334.4,235.1
			c1.7,1.6,2.6,4.1,2.6,7.3v15.4c0,0.1-0.1,0.2-0.2,0.2h-2.9c-0.1,0-0.2-0.1-0.2-0.2V254c-0.8,1.3-1.9,2.3-3.4,3s-3.2,1.1-5.3,1.1
			c-2.8,0-5-0.7-6.7-2c-1.6-1.3-2.5-3.1-2.5-5.3c0-2.1,0.8-3.8,2.3-5.2c1.5-1.3,4-2,7.4-2h8v-1.5c0-2.2-0.6-3.8-1.8-4.9
			s-3-1.7-5.3-1.7c-1.6,0-3.1,0.3-4.6,0.8c-1.4,0.5-2.6,1.2-3.6,2c-0.1,0.1-0.2,0-0.3,0l-1.3-2.2c0-0.1,0-0.2,0-0.2
			c1.3-1,2.7-1.8,4.5-2.4c1.8-0.6,3.7-0.9,5.6-0.9C330.1,232.6,332.6,233.5,334.4,235.1z M330.5,254.2c1.4-0.9,2.4-2.1,3-3.8v-4.1
			h-7.9c-4.3,0-6.4,1.5-6.4,4.5c0,1.5,0.6,2.6,1.7,3.5c1.1,0.8,2.7,1.3,4.7,1.3C327.5,255.5,329.2,255,330.5,254.2z M343.7,222.6h3
			c0.1,0,0.2,0.1,0.2,0.2v35c0,0.1-0.1,0.2-0.2,0.2h-3c-0.1,0-0.2-0.1-0.2-0.2v-35C343.6,222.7,343.6,222.6,343.7,222.6z
			 M367.8,256.2c0,0.1,0,0.2,0,0.2c-0.6,0.5-1.4,0.9-2.3,1.2c-0.9,0.3-1.9,0.5-2.9,0.5c-2.3,0-4.2-0.6-5.4-1.9
			c-1.3-1.3-1.9-3.1-1.9-5.4v-15.5h-4.3c-0.1,0-0.2-0.1-0.2-0.2v-2.5c0-0.1,0.1-0.2,0.2-0.2h4.3v-5.3c0-0.1,0.1-0.2,0.2-0.2h3
			c0.1,0,0.2,0.1,0.2,0.2v5.3h7.5c0.1,0,0.2,0.1,0.2,0.2v2.5c0,0.1-0.1,0.2-0.2,0.2h-7.5v15.3c0,1.5,0.4,2.6,1.1,3.4
			c0.7,0.8,1.8,1.2,3.2,1.2c0.7,0,1.4-0.1,2-0.3c0.6-0.2,1.1-0.5,1.5-0.8c0.1-0.1,0.2,0,0.3,0.1L367.8,256.2z M391.7,235.4
			c1.9,1.8,2.8,4.5,2.8,8v14.4c0,0.1-0.1,0.2-0.2,0.2h-3c-0.1,0-0.2-0.1-0.2-0.2v-14c0-2.6-0.7-4.6-2-6s-3.2-2-5.6-2
			c-2.7,0-4.8,0.8-6.4,2.4c-1.6,1.6-2.4,3.8-2.4,6.6v13c0,0.1-0.1,0.2-0.2,0.2h-3c-0.1,0-0.2-0.1-0.2-0.2v-35c0-0.1,0.1-0.2,0.2-0.2
			h3c0.1,0,0.2,0.1,0.2,0.2v14.5c0.9-1.5,2.2-2.6,3.8-3.4c1.6-0.8,3.5-1.2,5.6-1.2C387.3,232.6,389.9,233.5,391.7,235.4z
			 M92.4,230.4c1.6-0.9,3.8-1.4,6-1.4c3.2,0,5.9,1.2,8.2,3.5c0.2,0.2,0.5,0.2,0.7,0l4.2-4.1c0.2-0.2,0.2-0.5,0-0.7
			c-1.5-1.7-3.4-3.1-5.6-4.1c-2.4-1-5-1.6-8-1.6c-3.5,0-6.9,0.8-9.7,2.3c-2.8,1.6-5,3.7-6.6,6.5s-2.4,5.9-2.4,9.4s0.8,6.6,2.4,9.4
			s3.7,4.9,6.5,6.5c2.8,1.6,6.2,2.3,9.6,2.3c2.4,0,4.8-0.4,7.2-1.2c2.4-0.8,4.5-1.9,6.3-3.3v-14.9c0-0.3-0.2-0.5-0.5-0.5H98.3
			c-0.3,0-0.5,0.2-0.5,0.5v4.7c0,0.3,0.2,0.5,0.5,0.5h5.9l-0.1,5.7c-1.8,1-3.6,1.5-5.8,1.5c-2.1,0-4.2-0.5-5.9-1.4
			c-1.6-1-3-2.3-3.9-4c-0.9-1.7-1.4-3.7-1.4-5.9c0-2.2,0.5-4.2,1.4-5.9C89.4,232.6,90.8,231.3,92.4,230.4z M99.5,302.1l0-12
			l-5.9,9.9h-1.5l-5.9-9.8v11.8h-3.2V284h2.7l7.1,12l6.9-12h2.7l0,18.1C102.6,302.1,99.5,302.1,99.5,302.1z M119.6,299.3v2.8h-13.4
			V284h13v2.8h-9.7v4.7h8.6v2.8h-8.6v5L119.6,299.3L119.6,299.3z M122.7,284h7.8c1.9,0,3.6,0.4,5.1,1.1s2.6,1.8,3.4,3.2
			c0.8,1.4,1.2,2.9,1.2,4.7s-0.4,3.4-1.2,4.7c-0.8,1.4-2,2.4-3.4,3.2c-1.5,0.7-3.2,1.1-5.1,1.1h-7.8V284z M130.3,299.3
			c1.3,0,2.5-0.3,3.5-0.8c1-0.5,1.8-1.2,2.3-2.2c0.5-0.9,0.8-2,0.8-3.3c0-1.2-0.3-2.3-0.8-3.3c-0.5-0.9-1.3-1.7-2.3-2.2
			c-1-0.5-2.1-0.8-3.5-0.8H126v12.4H130.3z M143.4,284h3.3v18.1h-3.3V284z M154.7,301.2c-1.5-0.8-2.6-1.9-3.4-3.3
			c-0.8-1.4-1.2-3-1.2-4.8c0-1.8,0.4-3.4,1.3-4.8c0.8-1.4,2-2.5,3.4-3.3s3.1-1.2,4.9-1.2c1.5,0,2.8,0.3,4,0.8
			c1.2,0.5,2.2,1.3,3.1,2.3l-2.1,2c-1.3-1.4-2.9-2.1-4.8-2.1c-1.2,0-2.3,0.3-3.3,0.8c-1,0.5-1.7,1.3-2.3,2.3c-0.5,1-0.8,2.1-0.8,3.3
			c0,1.2,0.3,2.3,0.8,3.3c0.5,1,1.3,1.7,2.3,2.3c1,0.5,2.1,0.8,3.3,0.8c1.9,0,3.5-0.7,4.8-2.1l2.1,2.1c-0.8,1-1.9,1.7-3.1,2.3
			s-2.6,0.8-4,0.8C157.8,302.4,156.1,302,154.7,301.2z M181.1,297.9h-8.9l-1.8,4.2H167l8-18.1h3.3l8,18.1h-3.5L181.1,297.9z
			 M180,295.3l-3.4-7.9l-3.3,7.9C173.3,295.3,180,295.3,180,295.3z M188.3,284h3.3v15.3h9.3v2.8h-12.6L188.3,284L188.3,284z
			 M213.2,301.2c-1.5-0.8-2.6-1.9-3.4-3.3c-0.8-1.4-1.2-3-1.2-4.8c0-1.8,0.4-3.4,1.3-4.8c0.8-1.4,2-2.5,3.4-3.3s3.1-1.2,4.9-1.2
			c1.5,0,2.8,0.3,4,0.8c1.2,0.5,2.2,1.3,3.1,2.3l-2.1,2c-1.3-1.4-2.9-2.1-4.8-2.1c-1.2,0-2.3,0.3-3.3,0.8c-1,0.5-1.7,1.3-2.3,2.3
			c-0.5,1-0.8,2.1-0.8,3.3c0,1.2,0.3,2.3,0.8,3.3c0.5,1,1.3,1.7,2.3,2.3c1,0.5,2.1,0.8,3.3,0.8c1.9,0,3.5-0.7,4.8-2.1l2.1,2.1
			c-0.8,1-1.9,1.7-3.1,2.3s-2.6,0.8-4,0.8C216.3,302.4,214.6,302,213.2,301.2z M241.7,299.3v2.8h-13.4V284h13v2.8h-9.7v4.7h8.6v2.8
			h-8.6v5L241.7,299.3L241.7,299.3z M260.4,284v18.1h-2.7l-9.8-12.3v12.3h-3.3V284h2.7l9.8,12.3V284H260.4z M269.2,286.9h-5.9V284
			h15.1v2.8h-5.9v15.3h-3.3V286.9z M294.6,299.3v2.8h-13.4V284h13v2.8h-9.7v4.7h8.6v2.8h-8.6v5L294.6,299.3L294.6,299.3z
			 M309.3,302.1l-3.6-5.3c-0.2,0-0.4,0-0.7,0h-4v5.3h-3.3V284h7.3c1.5,0,2.9,0.3,4,0.8c1.1,0.5,2,1.3,2.6,2.2c0.6,1,0.9,2.1,0.9,3.4
			c0,1.4-0.3,2.5-1,3.5c-0.7,1-1.6,1.7-2.8,2.2l4.1,5.9L309.3,302.1L309.3,302.1z M308.1,287.8c-0.7-0.6-1.8-0.9-3.3-0.9h-3.9v7.2
			h3.9c1.4,0,2.5-0.3,3.3-0.9c0.7-0.6,1.1-1.5,1.1-2.7C309.2,289.3,308.8,288.4,308.1,287.8z"/>
		<g>
			<path class="st1" d="M54.4,243c0.7-0.5,0.7-1.3,0.7-1.3H24.8v30.3c0,0,0.8,0,1.3-0.7c0.2-0.2,5.9-8.5,13.1-15.7
				C45.9,248.8,54.2,243.1,54.4,243z"/>
			<path class="st0" d="M-4.8,243c-0.7-0.5-0.7-1.3-0.7-1.3h30.3v30.3c0,0-0.8,0-1.3-0.7c-0.2-0.2-5.9-8.5-13.1-15.7
				C3.6,248.8-4.7,243.1-4.8,243z"/>
			<path class="st2" d="M54.4,240.3c0.7,0.5,0.7,1.3,0.7,1.3H24.8v-30.3c0,0,0.8,0,1.3,0.7c0.2,0.2,5.9,8.5,13.1,15.7
				C45.9,234.5,54.2,240.2,54.4,240.3z"/>
			<path class="st1" d="M-4.8,240.3c-0.7,0.5-0.7,1.3-0.7,1.3h30.3v-30.3c0,0-0.8,0-1.3,0.7c-0.2,0.2-5.9,8.5-13.1,15.7
				C3.6,234.5-4.7,240.2-4.8,240.3z"/>
		</g>
	</g>
</g>
</svg>
