<?xml version="1.0" encoding="utf-8"?>
<!-- Generator: Adobe Illustrator 19.0.0, SVG Export Plug-In . SVG Version: 6.00 Build 0)  -->
<svg version="1.1" id="Layer_1" xmlns="http://www.w3.org/2000/svg" xmlns:xlink="http://www.w3.org/1999/xlink" x="0px" y="0px"
	 viewBox="276 -34.4 320 97.4" style="enable-background:new 276 -34.4 320 97.4;" xml:space="preserve">
<style type="text/css">
	.st0{fill:#5C0239;}
	.st1{fill:#891842;}
	.st2{fill:#C1274E;}
</style>
<g>
	<g>
		<path class="st0" d="M389.2-15.7c1.7,1.5,2.6,3.8,2.6,6.8V2.9h-5.1c-0.2,0-0.4-0.2-0.4-0.4V0.3c-1.1,1.9-3.2,2.9-6.3,2.9
			c-1.6,0-2.9-0.3-4.1-0.8s-2-1.3-2.7-2.2s-0.9-2-0.9-3.2c0-1.9,0.7-3.4,2.2-4.5c1.4-1.1,3.7-1.6,6.7-1.6h4.7c0-1.3-0.4-2.3-1.2-3
			c-0.8-0.7-2-1-3.5-1c-1.1,0-2.2,0.2-3.2,0.5c-0.9,0.3-1.6,0.7-2.3,1.1c-0.2,0.1-0.5,0.1-0.6-0.2l-1.7-3.4c-0.1-0.2,0-0.4,0.1-0.5
			c1.1-0.7,2.3-1.2,3.7-1.6c1.6-0.4,3.2-0.6,4.8-0.6C385-18,387.5-17.2,389.2-15.7z M384.1-1.5c0.8-0.5,1.3-1.2,1.7-2.1v-2.1h-4.1
			c-2.4,0-3.7,0.8-3.7,2.4c0,0.8,0.3,1.4,0.9,1.8c0.6,0.4,1.4,0.7,2.5,0.7C382.4-0.8,383.3-1.1,384.1-1.5z M403.7-17.1
			c1.2-0.5,2.6-0.8,4.2-0.8v5.2c0,0.2-0.1,0.3-0.3,0.3c-0.5,0-0.8-0.1-1-0.1c-1.7,0-3,0.5-4,1.4c-1,1-1.4,2.4-1.4,4.3v9.1
			c0,0.2-0.2,0.4-0.4,0.4h-5.5v-20.1c0-0.2,0.2-0.4,0.4-0.4h4.8c0.2,0,0.4,0.2,0.4,0.4v2.4C401.5-15.8,402.5-16.6,403.7-17.1z
			 M429.2-15.7c1.6,1.5,2.3,3.8,2.3,6.8V2.5c0,0.2-0.2,0.4-0.4,0.4h-5.2c-0.2,0-0.4-0.2-0.4-0.4V-8c0-1.6-0.4-2.8-1.1-3.6
			c-0.7-0.8-1.7-1.2-3.1-1.2c-1.5,0-2.7,0.5-3.6,1.4c-0.9,0.9-1.3,2.3-1.3,4.1v9.8c0,0.2-0.2,0.4-0.4,0.4h-5.2
			c-0.2,0-0.4-0.2-0.4-0.4v-20.1h5.4c0.2,0,0.3,0.1,0.3,0.3v2.1c0.8-0.9,1.8-1.5,2.9-2c1.2-0.5,2.5-0.7,3.9-0.7
			C425.6-18,427.6-17.2,429.2-15.7z M455.4-5.7h-15.2c0.3,1.3,0.9,2.3,2,3c1,0.7,2.3,1.1,3.9,1.1c1.1,0,2-0.2,2.8-0.5
			c0.8-0.3,1.5-0.7,2.1-1.3c0.1-0.1,0.3-0.1,0.4,0l2.7,3c0.1,0.1,0.1,0.4,0,0.5c-1.9,2-4.7,3-8.2,3c-2.3,0-4.4-0.5-6.1-1.4
			c-1.8-0.9-3.2-2.2-4.1-3.8c-1-1.6-1.4-3.4-1.4-5.4c0-2,0.5-3.8,1.4-5.4c1-1.6,2.3-2.9,3.9-3.8c1.7-0.9,3.5-1.4,5.6-1.4
			c2,0,3.8,0.4,5.4,1.3c1.6,0.9,2.9,2.1,3.8,3.7c0.9,1.6,1.4,3.5,1.4,5.6c0,0.1,0,0.5-0.1,1.3C455.7-5.8,455.5-5.7,455.4-5.7z
			 M441.7-12.3c-0.9,0.8-1.5,1.8-1.7,3.1h10.1c-0.2-1.3-0.8-2.3-1.7-3.1c-0.9-0.8-2-1.2-3.4-1.2C443.8-13.5,442.6-13.1,441.7-12.3z
			 M472.2,1.7c0,0.1,0,0.2-0.1,0.3c-0.6,0.4-1.2,0.7-2,0.9c-0.9,0.2-1.7,0.3-2.7,0.3c-2.4,0-4.3-0.6-5.7-1.9c-1.3-1.2-2-3.1-2-5.5
			v-8.4h-3c-0.1,0-0.2-0.1-0.2-0.2V-17c0-0.1,0.1-0.2,0.2-0.2h3V-22c0-0.1,0.1-0.2,0.2-0.2h5.5c0.1,0,0.2,0.1,0.2,0.2v4.8h4.9
			c0.1,0,0.2,0.1,0.2,0.2v4.2c0,0.1-0.1,0.2-0.2,0.2h-4.9v8.4c0,0.9,0.2,1.5,0.7,2c0.4,0.5,1.1,0.7,1.9,0.7c0.8,0,1.6-0.2,2.2-0.6
			c0.1-0.1,0.3,0,0.3,0.1L472.2,1.7z M507.2-25.3v28c0,0.1-0.1,0.1-0.1,0.1h-2.5c-0.1,0-0.1-0.1-0.1-0.1v-12.9h-16.7V2.7
			c0,0.1-0.1,0.1-0.1,0.1H485c-0.1,0-0.1-0.1-0.1-0.1v-28c0-0.1,0.1-0.1,0.1-0.1h2.5c0.1,0,0.1,0.1,0.1,0.1v12.6h16.7v-12.6
			c0-0.1,0.1-0.1,0.1-0.1h2.5C507.1-25.4,507.2-25.3,507.2-25.3z M530.3-6.3h-16.6c0.2,2.1,1,3.8,2.4,5.1c1.4,1.3,3.3,1.9,5.5,1.9
			c1.2,0,2.4-0.2,3.4-0.7c1-0.4,1.9-1,2.6-1.8c0.1-0.1,0.1-0.1,0.2,0l1.4,1.6c0,0.1,0,0.1,0,0.2c-0.9,1-2,1.8-3.3,2.3
			C524.5,2.8,523,3,521.4,3c-2.1,0-3.9-0.4-5.5-1.3s-2.8-2.1-3.7-3.6c-0.9-1.6-1.3-3.3-1.3-5.3s0.4-3.7,1.3-5.3s2-2.8,3.5-3.6
			s3.2-1.3,5-1.3s3.5,0.4,5,1.3c1.5,0.9,2.6,2.1,3.5,3.6s1.3,3.3,1.3,5.3l0,0.7C530.4-6.4,530.3-6.3,530.3-6.3z M515.8-13.2
			c-1.3,1.2-2.1,2.8-2.2,4.8h14.2c-0.2-2-0.9-3.6-2.2-4.8c-1.3-1.2-2.9-1.8-4.9-1.8C518.8-15,517.2-14.4,515.8-13.2z M547.9-15.4
			c1.4,1.3,2.1,3.2,2.1,5.8V2.7c0,0.1-0.1,0.1-0.1,0.1h-2.3c-0.1,0-0.1-0.1-0.1-0.1v-3c-0.6,1-1.5,1.9-2.7,2.4
			c-1.2,0.6-2.6,0.9-4.2,0.9c-2.2,0-4-0.5-5.3-1.6s-2-2.5-2-4.2c0-1.7,0.6-3.1,1.8-4.1c1.2-1,3.2-1.6,5.9-1.6h6.4v-1.2
			c0-1.7-0.5-3-1.4-3.9s-2.4-1.4-4.2-1.4c-1.3,0-2.5,0.2-3.7,0.6c-1.1,0.4-2.1,0.9-2.9,1.6c-0.1,0.1-0.2,0-0.2,0l-1.1-1.8
			c0-0.1,0-0.1,0-0.2c1-0.8,2.2-1.5,3.6-1.9c1.4-0.5,2.9-0.7,4.5-0.7C544.5-17.4,546.5-16.7,547.9-15.4z M544.8-0.1
			c1.1-0.7,1.9-1.7,2.4-3v-3.3H541c-3.4,0-5.1,1.2-5.1,3.6c0,1.2,0.4,2.1,1.3,2.8c0.9,0.7,2.1,1,3.7,1
			C542.4,0.9,543.7,0.6,544.8-0.1z M555.4-25.4h2.4c0.1,0,0.1,0.1,0.1,0.1v28c0,0.1-0.1,0.1-0.1,0.1h-2.4c-0.1,0-0.1-0.1-0.1-0.1
			v-28C555.3-25.3,555.3-25.4,555.4-25.4z M574.6,1.5c0,0.1,0,0.1,0,0.2c-0.5,0.4-1.1,0.7-1.8,1c-0.7,0.2-1.5,0.4-2.3,0.4
			c-1.9,0-3.3-0.5-4.3-1.5c-1-1-1.5-2.5-1.5-4.3v-12.4h-3.5c-0.1,0-0.1-0.1-0.1-0.1v-2c0-0.1,0.1-0.1,0.1-0.1h3.5v-4.2
			c0-0.1,0.1-0.1,0.1-0.1h2.4c0.1,0,0.1,0.1,0.1,0.1v4.2h6c0.1,0,0.1,0.1,0.1,0.1v2c0,0.1-0.1,0.1-0.1,0.1h-6v12.3
			c0,1.2,0.3,2.1,0.9,2.7c0.6,0.6,1.5,0.9,2.6,0.9c0.6,0,1.1-0.1,1.6-0.3c0.5-0.2,0.9-0.4,1.2-0.7c0.1-0.1,0.2,0,0.2,0L574.6,1.5z
			 M593.8-15.2c1.5,1.5,2.2,3.6,2.2,6.4V2.7c0,0.1-0.1,0.1-0.1,0.1h-2.4c-0.1,0-0.1-0.1-0.1-0.1V-8.5c0-2.1-0.5-3.7-1.6-4.8
			c-1-1.1-2.5-1.6-4.5-1.6c-2.2,0-3.9,0.6-5.1,1.9c-1.3,1.3-1.9,3.1-1.9,5.3V2.7c0,0.1-0.1,0.1-0.1,0.1h-2.4c-0.1,0-0.1-0.1-0.1-0.1
			v-28c0-0.1,0.1-0.1,0.1-0.1h2.4c0.1,0,0.1,0.1,0.1,0.1v11.6c0.7-1.2,1.8-2.1,3.1-2.7c1.3-0.6,2.8-1,4.5-1
			C590.3-17.4,592.3-16.6,593.8-15.2z M354.3-19.2c1.3-0.8,3.1-1.1,4.8-1.1c2.5,0,4.8,1,6.5,2.8c0.2,0.2,0.4,0.2,0.6,0l3.4-3.3
			c0.2-0.2,0.2-0.4,0-0.6c-1.2-1.4-2.7-2.5-4.5-3.2c-1.9-0.8-4-1.2-6.4-1.2c-2.8,0-5.5,0.6-7.8,1.9c-2.2,1.3-4,3-5.2,5.2
			c-1.3,2.2-1.9,4.7-1.9,7.5s0.6,5.3,1.9,7.5s3,3.9,5.2,5.2c2.2,1.2,4.9,1.9,7.7,1.9c1.9,0,3.9-0.3,5.8-0.9c1.9-0.6,3.6-1.5,5-2.7
			v-11.9c0-0.2-0.2-0.4-0.4-0.4h-10c-0.2,0-0.4,0.2-0.4,0.4v3.8c0,0.2,0.2,0.4,0.4,0.4h4.7l-0.1,4.5c-1.4,0.8-2.9,1.2-4.6,1.2
			c-1.7,0-3.4-0.4-4.7-1.2s-2.4-1.8-3.2-3.2s-1.1-2.9-1.1-4.7c0-1.8,0.4-3.3,1.1-4.7C351.9-17.4,353-18.4,354.3-19.2z M349.7,62.1
			c-1.1-0.6-2-1.5-2.7-2.6c-0.6-1.1-1-2.4-1-3.8c0-1.4,0.3-2.7,1-3.8c0.6-1.1,1.5-2,2.7-2.6c1.1-0.6,2.4-1,3.8-1
			c1.1,0,2,0.2,2.9,0.5s1.7,0.9,2.3,1.6l-1,1c-1.1-1.1-2.5-1.7-4.2-1.7c-1.1,0-2.2,0.3-3.1,0.8c-0.9,0.5-1.6,1.2-2.2,2.2
			s-0.8,1.9-0.8,3.1c0,1.1,0.3,2.2,0.8,3.1c0.5,0.9,1.2,1.6,2.2,2.2c0.9,0.5,1.9,0.8,3.1,0.8c1.7,0,3.1-0.6,4.2-1.7l1,1
			c-0.6,0.7-1.4,1.2-2.3,1.6c-0.9,0.4-1.9,0.5-2.9,0.5C352.1,63.1,350.9,62.8,349.7,62.1z M368.9,53c0.7,0.7,1.1,1.8,1.1,3.2v6.7
			h-1.4v-1.7c-0.3,0.6-0.8,1-1.4,1.3c-0.6,0.3-1.4,0.5-2.2,0.5c-1.2,0-2.1-0.3-2.9-0.9c-0.7-0.6-1.1-1.3-1.1-2.3
			c0-0.9,0.3-1.7,1-2.2c0.7-0.6,1.7-0.8,3.1-0.8h3.4v-0.7c0-0.9-0.3-1.6-0.8-2.1c-0.5-0.5-1.3-0.7-2.3-0.7c-0.7,0-1.3,0.1-2,0.3
			c-0.6,0.2-1.2,0.5-1.6,0.9l-0.7-1.1c0.5-0.5,1.2-0.8,2-1.1c0.8-0.3,1.6-0.4,2.4-0.4C367,52,368.1,52.3,368.9,53z M367.2,61.3
			c0.6-0.4,1-0.9,1.3-1.6v-1.8h-3.4c-1.8,0-2.7,0.6-2.7,1.9c0,0.6,0.2,1.1,0.7,1.5s1.1,0.5,2,0.5C365.9,61.9,366.6,61.7,367.2,61.3z
			 M379.9,62.3c-0.3,0.2-0.6,0.4-1,0.6c-0.4,0.1-0.8,0.2-1.3,0.2c-1,0-1.8-0.3-2.3-0.8s-0.8-1.3-0.8-2.3v-6.6h-1.9v-1.2h1.9v-2.4
			h1.4v2.4h3.3v1.2H376v6.5c0,0.6,0.2,1.1,0.5,1.5c0.3,0.3,0.8,0.5,1.4,0.5c0.3,0,0.6,0,0.9-0.1c0.3-0.1,0.5-0.2,0.7-0.4L379.9,62.3
			z M383.3,62.7c-0.8-0.3-1.4-0.6-1.9-1l0.7-1.2c0.4,0.4,1,0.7,1.7,0.9c0.7,0.2,1.4,0.3,2.1,0.3c1,0,1.7-0.2,2.2-0.5
			c0.5-0.3,0.7-0.7,0.7-1.3c0-0.4-0.1-0.7-0.4-0.9c-0.3-0.2-0.6-0.4-1-0.5c-0.4-0.1-0.9-0.2-1.6-0.3c-0.9-0.2-1.6-0.3-2.1-0.5
			c-0.5-0.2-1-0.5-1.4-0.9c-0.4-0.4-0.6-1-0.6-1.7c0-0.9,0.4-1.7,1.1-2.2s1.8-0.9,3.1-0.9c0.7,0,1.4,0.1,2.1,0.3
			c0.7,0.2,1.3,0.4,1.7,0.7l-0.6,1.2c-0.9-0.6-1.9-0.9-3.2-0.9c-0.9,0-1.6,0.2-2.1,0.5c-0.5,0.3-0.7,0.8-0.7,1.3
			c0,0.4,0.1,0.7,0.4,1c0.3,0.2,0.6,0.4,1,0.5c0.4,0.1,0.9,0.2,1.6,0.4c0.9,0.2,1.5,0.3,2.1,0.5s1,0.4,1.3,0.8
			c0.4,0.4,0.5,1,0.5,1.7c0,1-0.4,1.7-1.2,2.3c-0.8,0.6-1.9,0.8-3.3,0.8C384.9,63.1,384.1,62.9,383.3,62.7z M397.2,57.5l-2.5,2.4V63
			h-1.4V47.6h1.4V58l6.4-5.9h1.8l-4.6,4.4l5,6.4h-1.8L397.2,57.5z M405.8,49.4c-0.2-0.2-0.3-0.5-0.3-0.7c0-0.3,0.1-0.5,0.3-0.7
			c0.2-0.2,0.5-0.3,0.8-0.3c0.3,0,0.5,0.1,0.8,0.3c0.2,0.2,0.3,0.4,0.3,0.7c0,0.3-0.1,0.6-0.3,0.8c-0.2,0.2-0.5,0.3-0.8,0.3
			C406.3,49.7,406,49.6,405.8,49.4z M405.7,52.1h1.4V63h-1.4V52.1z M411.7,47.6h1.4V63h-1.4V47.6z M417.5,47.6h1.4V63h-1.4V47.6z
			 M423.6,62.7c-0.8-0.3-1.4-0.6-1.9-1l0.7-1.2c0.4,0.4,1,0.7,1.7,0.9c0.7,0.2,1.4,0.3,2.1,0.3c1,0,1.7-0.2,2.2-0.5s0.7-0.7,0.7-1.3
			c0-0.4-0.1-0.7-0.4-0.9c-0.3-0.2-0.6-0.4-1-0.5c-0.4-0.1-0.9-0.2-1.6-0.3c-0.9-0.2-1.6-0.3-2.1-0.5c-0.5-0.2-1-0.5-1.4-0.9
			c-0.4-0.4-0.6-1-0.6-1.7c0-0.9,0.4-1.7,1.1-2.2s1.8-0.9,3.1-0.9c0.7,0,1.4,0.1,2.1,0.3c0.7,0.2,1.3,0.4,1.7,0.7l-0.6,1.2
			c-0.9-0.6-1.9-0.9-3.2-0.9c-0.9,0-1.6,0.2-2.1,0.5c-0.5,0.3-0.7,0.8-0.7,1.3c0,0.4,0.1,0.7,0.4,1c0.3,0.2,0.6,0.4,1,0.5
			c0.4,0.1,0.9,0.2,1.6,0.4c0.9,0.2,1.5,0.3,2.1,0.5s1,0.4,1.3,0.8c0.4,0.4,0.5,1,0.5,1.7c0,1-0.4,1.7-1.2,2.3
			c-0.8,0.6-1.9,0.8-3.3,0.8C425.2,63.1,424.4,62.9,423.6,62.7z M360,38.3l0-9.6l-4.7,7.9h-1.2l-4.7-7.8v9.5h-2.5V23.8h2.2l5.7,9.6
			l5.6-9.6h2.2l0,14.5H360z M376.1,36v2.3h-10.7V23.8h10.4V26H368v3.8h6.9V32H368v4H376.1z M378.5,23.8h6.2c1.5,0,2.9,0.3,4.1,0.9
			c1.2,0.6,2.1,1.4,2.7,2.5c0.7,1.1,1,2.4,1,3.8s-0.3,2.7-1,3.8c-0.7,1.1-1.6,1.9-2.7,2.5c-1.2,0.6-2.5,0.9-4.1,0.9h-6.2V23.8z
			 M384.7,36c1,0,2-0.2,2.8-0.6s1.4-1,1.8-1.7c0.4-0.7,0.6-1.6,0.6-2.6c0-1-0.2-1.9-0.6-2.6c-0.4-0.7-1-1.3-1.8-1.7
			c-0.8-0.4-1.7-0.6-2.8-0.6h-3.5V36L384.7,36L384.7,36z M395.1,23.8h2.7v14.5h-2.7V23.8z M404.1,37.5c-1.2-0.6-2.1-1.5-2.7-2.7
			c-0.7-1.1-1-2.4-1-3.8c0-1.4,0.3-2.7,1-3.8c0.7-1.1,1.6-2,2.7-2.7s2.5-1,3.9-1c1.2,0,2.2,0.2,3.2,0.6c1,0.4,1.8,1,2.4,1.8
			l-1.7,1.6c-1-1.1-2.3-1.7-3.8-1.7c-1,0-1.9,0.2-2.6,0.7s-1.4,1-1.8,1.8c-0.4,0.8-0.7,1.6-0.7,2.6s0.2,1.9,0.7,2.6
			c0.4,0.8,1,1.4,1.8,1.8c0.8,0.4,1.6,0.7,2.6,0.7c1.5,0,2.8-0.6,3.8-1.7l1.7,1.7c-0.7,0.8-1.5,1.4-2.5,1.8c-1,0.4-2,0.6-3.2,0.6
			C406.6,38.5,405.3,38.1,404.1,37.5z M425.3,34.9h-7.1l-1.4,3.3H414l6.4-14.5h2.6l6.4,14.5h-2.8L425.3,34.9z M424.4,32.8l-2.7-6.3
			l-2.7,6.3H424.4z M431.1,23.8h2.7V36h7.5v2.3h-10.1V23.8z M450.9,37.5c-1.2-0.6-2.1-1.5-2.7-2.7c-0.7-1.1-1-2.4-1-3.8
			c0-1.4,0.3-2.7,1-3.8c0.7-1.1,1.6-2,2.7-2.7s2.5-1,3.9-1c1.2,0,2.2,0.2,3.2,0.6s1.8,1,2.4,1.8l-1.7,1.6c-1-1.1-2.3-1.7-3.8-1.7
			c-1,0-1.9,0.2-2.6,0.7s-1.4,1-1.8,1.8c-0.4,0.8-0.7,1.6-0.7,2.6s0.2,1.9,0.7,2.6c0.4,0.8,1,1.4,1.8,1.8c0.8,0.4,1.6,0.7,2.6,0.7
			c1.5,0,2.8-0.6,3.8-1.7l1.7,1.7c-0.7,0.8-1.5,1.4-2.5,1.8c-1,0.4-2,0.6-3.2,0.6C453.4,38.5,452.1,38.1,450.9,37.5z M473.8,36v2.3
			h-10.7V23.8h10.4V26h-7.8v3.8h6.9V32h-6.9v4H473.8z M488.7,23.8v14.5h-2.2l-7.9-9.8v9.8H476V23.8h2.2l7.9,9.8v-9.8H488.7z
			 M495.8,26h-4.7v-2.3h12.1V26h-4.7v12.2h-2.7L495.8,26L495.8,26z M516.1,36v2.3h-10.7V23.8h10.4V26H508v3.8h6.9V32H508v4H516.1z
			 M527.8,38.3l-2.9-4.2c-0.1,0-0.3,0-0.5,0h-3.2v4.2h-2.7V23.8h5.9c1.2,0,2.3,0.2,3.2,0.6c0.9,0.4,1.6,1,2.1,1.8
			c0.5,0.8,0.7,1.7,0.7,2.8c0,1.1-0.3,2-0.8,2.8c-0.5,0.8-1.3,1.4-2.2,1.8l3.3,4.8L527.8,38.3L527.8,38.3z M526.9,26.8
			c-0.6-0.5-1.5-0.7-2.6-0.7h-3.1v5.8h3.1c1.2,0,2-0.3,2.6-0.8c0.6-0.5,0.9-1.2,0.9-2.1C527.8,28,527.5,27.3,526.9,26.8z"/>
		<g>
			<path class="st1" d="M323.9-9.1c0.5-0.4,0.5-1,0.5-1h-24.2v24.2c0,0,0.6,0,1-0.5c0.1-0.1,4.7-6.8,10.4-12.5
				C317.1-4.4,323.8-9,323.9-9.1z"/>
			<path class="st0" d="M276.5-9.1c-0.5-0.4-0.5-1-0.5-1h24.2v24.2c0,0-0.6,0-1-0.5c-0.1-0.1-4.7-6.8-10.4-12.5
				C283.3-4.4,276.6-9,276.5-9.1z"/>
			<path class="st2" d="M323.9-11.2c0.5,0.4,0.5,1,0.5,1h-24.2v-24.2c0,0,0.6,0,1,0.5c0.1,0.1,4.7,6.8,10.4,12.5
				C317.1-15.9,323.8-11.3,323.9-11.2z"/>
			<path class="st1" d="M276.5-11.2c-0.5,0.4-0.5,1-0.5,1h24.2v-24.2c0,0-0.6,0-1,0.5c-0.1,0.1-4.7,6.8-10.4,12.5
				C283.3-15.9,276.6-11.3,276.5-11.2z"/>
		</g>
	</g>
</g>
</svg>
